<svg xmlns="http://www.w3.org/2000/svg" width="63" height="117" viewBox="0 0 63 117" fill="none">
  <path d="M1.74299 82.6897L0.0195312 81.696V0L1.74299 0.261511V82.6897Z" fill="black"/>
  <path d="M62.6665 117L59.7773 115.379V9.6759L62.6665 10.0943V117Z" fill="black"/>
  <path d="M59.7796 57.2186L1.74219 37.3438V4.39343L59.7796 14.9584V57.2186Z" fill="#006633"/>
  <path d="M5.44922 30.0214L8.23704 16.4751L9.14944 16.6843L12.0894 32.0088L11.1263 31.695L8.54122 17.6258L8.896 17.7304L6.36162 30.2829L5.44922 30.0214ZM6.61506 26.8309L6.8685 25.2619L10.4166 26.2556L10.6701 27.9816L6.61506 26.8309Z" fill="white"/>
  <path d="M13 32.3226V17.5734L15.585 18.2011C16.1932 18.358 16.7001 18.6718 17.1056 19.1948C17.5111 19.7178 17.866 20.3977 18.0688 21.2346C18.3222 22.0714 18.4236 23.0652 18.4236 24.1635C18.4236 25.2619 18.3222 26.151 18.0688 26.8832C17.8153 27.6155 17.5111 28.1385 17.1056 28.4C16.7001 28.7138 16.1932 28.7661 15.585 28.6092L13.5069 28.0339L13.9124 27.197V32.6888L13 32.3226ZM13.963 27.3539L13.5575 26.2033L15.585 26.7786C16.1932 26.9355 16.6495 26.7786 17.0043 26.2556C17.3084 25.7326 17.5112 24.9481 17.5112 23.902C17.5112 22.8037 17.3591 21.9668 17.0043 21.2869C16.7002 20.607 16.1932 20.2409 15.585 20.084L13.5575 19.6132L13.963 18.6718V27.3539ZM17.5112 33.6825L15.7878 27.7723L16.8016 28.0339L18.5756 33.9963L17.5112 33.6825Z" fill="white"/>
  <path d="M20.0508 34.4147V19.1948L22.8386 19.8224C23.4469 19.9793 24.0044 20.2931 24.4606 20.8684C24.9168 21.3915 25.2716 22.1237 25.5251 22.9605C25.7785 23.8497 25.8799 24.8434 25.8799 25.994C25.8799 27.1447 25.7785 28.0861 25.5251 28.8183C25.2716 29.5506 24.9168 30.0736 24.4606 30.3874C24.0044 30.7012 23.4469 30.7535 22.8386 30.5966L20.6084 29.969L21.0645 29.0799V34.7285L20.0508 34.4147ZM21.0645 29.2891L20.6084 28.0861L22.788 28.6614C23.4469 28.8183 23.9538 28.6614 24.3086 28.1384C24.6634 27.6154 24.8155 26.7786 24.8155 25.6802C24.8155 24.5819 24.6634 23.6928 24.3086 22.9605C23.9538 22.2806 23.4469 21.8622 22.788 21.7053L20.6084 21.1822L21.0645 20.1885V29.2891ZM24.8661 35.8791L23.0414 29.7075L24.1565 30.0213L26.032 36.193L24.8661 35.8791Z" fill="white"/>
  <path d="M27.5508 36.7161V20.9731L28.6153 21.2347V37.0299L27.5508 36.7161Z" fill="white"/>
  <path d="M33.0718 38.3373L29.6758 21.4437L30.8416 21.7052L33.9842 37.3436L33.2747 37.1344L36.5186 23.0128L37.6845 23.2743L34.1871 38.6512L33.0718 38.3373Z" fill="white"/>
  <path d="M39.9704 38.3374L44.887 39.8019V41.894L38.7539 40.0634V23.5882L44.6843 24.9481V27.0402L39.9196 25.8895V38.3374H39.9704ZM39.869 30.9628L44.2281 32.1135V34.1532L39.869 33.0026V30.9628ZM40.832 22.6991L42.454 19.9794L43.924 20.2932L41.8965 22.9606L40.832 22.6991Z" fill="white"/>
  <path d="M48.1773 40.7434L53.4489 42.3124V44.5091L46.9102 42.5216V25.4711L53.2461 26.9356V29.1323L48.1773 27.877V40.7434ZM48.0253 33.1072L52.6886 34.3102V36.4023L48.0253 35.147V33.1072Z" fill="white"/>
</svg>