<svg xmlns="http://www.w3.org/2000/svg" viewBox="0 0 1656 528.6" xmlns:v="https://vecta.io/nano"><style><![CDATA[.P{fill:#f1f1f0}.Q{opacity:.25}.R{opacity:.54}.S{fill:#fdf8fb}.T{font-family:MyriadPro-Regular}.U{font-size:24.982px}]]></style><use href="#H" class="P"/><linearGradient id="A" gradientUnits="userSpaceOnUse" x1="660.171" y1="411.25" x2="660.171" y2="357.25"><stop offset="0" stop-color="#1d1e1c"/><stop offset="1" stop-color="#fff"/></linearGradient><use href="#I" fill="url(#A)" class="Q"/><linearGradient id="B" gradientUnits="userSpaceOnUse" x1="660.171" y1="411.25" x2="660.171" y2="357.25"><stop offset="0" stop-color="#e0e0ec"/><stop offset="1" stop-color="#f1f1f0"/></linearGradient><use href="#I" fill="url(#B)" class="R"/><use href="#J" class="S"/><text transform="matrix(1.0616 0 0 1 643.2382 384.5734)" class="T U">1</text><path d="M840.6 158.2c-16.4 0-34.6 19.1-1.2 53.4.4.4.7.6 1.2.6.4 0 .7-.2 1.2-.6 33.4-34.3 16.2-53.4-1.2-53.4z" class="P"/><linearGradient id="C" gradientUnits="userSpaceOnUse" x1="660.181" y1="411.312" x2="660.181" y2="357.312"><stop offset="0" stop-color="#1d1e1c"/><stop offset="1" stop-color="#fff"/></linearGradient><use href="#I" x="190.6" y="-199.1" fill="url(#C)" class="Q"/><linearGradient id="D" gradientUnits="userSpaceOnUse" x1="660.181" y1="411.312" x2="660.181" y2="357.312"><stop offset="0" stop-color="#e0e0ec"/><stop offset="1" stop-color="#f1f1f0"/></linearGradient><use href="#I" x="190.6" y="-199.1" fill="url(#D)" class="R"/><path d="M840.6 161.9c-15 0-26.8 19.8-1 35.8.4.3.6.4 1 .4s.6-.1 1-.4c26.3-17.7 13.9-35.8-1-35.8z" class="S"/><text transform="matrix(1.0616 0 0 1 833.8478 185.5349)" class="T U">2</text><use href="#H" x="369" y="-46" class="P"/><use href="#I" x="369" y="-46" fill="url(#A)" class="Q"/><use href="#I" x="369" y="-46" fill="url(#B)" class="R"/><use href="#J" x="369" y="-46" class="S"/><text transform="matrix(1.0616 0 0 1 1012.2382 338.5734)" class="T U">3</text><path d="M1155.7 221.3c-16.4 0-34.6 19.1-1.2 53.4.4.4.7.6 1.2.6.4 0 .7-.2 1.2-.6 33.4-34.4 16.2-53.5-1.2-53.4z" class="P"/><linearGradient id="E" gradientUnits="userSpaceOnUse" x1="660.189" y1="411.25" x2="660.189" y2="357.25"><stop offset="0" stop-color="#1d1e1c"/><stop offset="1" stop-color="#fff"/></linearGradient><use href="#I" x="505.7" y="-136" fill="url(#E)" class="Q"/><linearGradient id="F" gradientUnits="userSpaceOnUse" x1="660.189" y1="411.25" x2="660.189" y2="357.25"><stop offset="0" stop-color="#e0e0ec"/><stop offset="1" stop-color="#f1f1f0"/></linearGradient><use href="#I" x="505.7" y="-136" fill="url(#F)" class="R"/><path d="M1155.7 224.9c-15 0-26.8 19.8-1 35.8.4.3.6.4 1 .4s.6-.1 1-.4c26.4-17.7 13.9-35.8-1-35.8z" class="S"/><text transform="matrix(1.0616 0 0 1 1148.9553 248.5734)" class="T U">4</text><use href="#H" x="661" y="26" class="P"/><use href="#I" x="661" y="26" fill="url(#A)" class="Q"/><use href="#I" x="661" y="26" fill="url(#B)" class="R"/><use href="#J" x="661" y="26" class="S"/><text transform="matrix(1.0616 0 0 1 1304.2383 410.5734)" class="T U">5</text><defs ><path id="H" d="M649.9 357.3c-16.4 0-34.6 19.1-1.2 53.4.4.4.7.6 1.2.6.4 0 .7-.2 1.2-.6 33.5-34.4 16.3-53.5-1.2-53.4z"/><path id="I" d="M650.1 357.3c17.3 0 34.6 19.1 1.2 53.4-.4.4-.7.6-1.2.6v-54z"/><path id="J" d="M649.9 360.9c-15 0-26.8 19.8-1 35.8.4.3.6.4 1 .4s.6-.1 1-.4c26.4-17.7 14-35.8-1-35.8z"/></defs></svg>