<svg xmlns="http://www.w3.org/2000/svg" viewBox="0 0 1656 528.6" xmlns:v="https://vecta.io/nano"><path d="M26.4 0v321.2c0 64.8 52.6 117.4 117.4 117.4H612h18c170.9 0 153 63 207.1 62.9h0 0c53.9.1 80.9-71.9 8.9-107.9L814.7 379c-45.8-19.1-58.4-78-24.4-114.1l1.8-1.9c35.6-37.9 97.2-29.9 121.9 15.3l4 7.4 27 63h0c26.8 57.5 107 61.7 139.6 7.3l4.4-7.3c9-18 18.6-36.1 45.1-45.5 31.5-10.9 68 3.1 86 37.2 2.1 3.9 3.8 8.1 5.2 12.3l7.7 23 9 27c9 27 19.3 42.8 36 54 .3.2.5.4.8.5 27.3 17.9 64 10.3 82.1-16.9l7.1-10.6c27-45 45-45 107.5-45h99.5c29.8 0 54-24.2 54-54l.1-330.7" opacity=".35" fill="none" stroke="#000" stroke-width="41" stroke-miterlimit="10" enable-background="new"/></svg>