<?xml version="1.0" encoding="utf-8"?>
<!-- Generator: Adobe Illustrator 25.2.0, SVG Export Plug-In . SVG Version: 6.00 Build 0)  -->
<svg version="1.1" id="Calque_1" xmlns:v="https://vecta.io/nano"
	 xmlns="http://www.w3.org/2000/svg" xmlns:xlink="http://www.w3.org/1999/xlink" x="0px" y="0px" viewBox="0 0 1656 555.6"
	 style="enable-background:new 0 0 1656 555.6;" xml:space="preserve">
<style type="text/css">
	.st0{fill:none;stroke:#1D1D1B;stroke-width:41;stroke-miterlimit:10;}
</style>
<image style="display:none;overflow:visible;opacity:0.42;" width="1409" height="597" xlink:href="C:\Users\super\Downloads\Capture dՎcran 2025-01-14 223547.png"  transform="matrix(1.2949 0 0 1.2949 -61.5385 -5.647)">
</image>
<path class="st0" d="M1629,0v363.6l0,0c0,29.8-24.2,54-54,54l0,0h-132c-0.7,0-4.5,0-5.2,0c-3.5,0.1-6.9,0.5-10.2,1.1
	c-16.2,3-30.6,12.2-40.8,25.2l-25.3,32.4c-11.8,14-29.4,22.8-49.1,22.8c-43.6-0.7-58.4-33-70.7-68.4c-16.2-46.6-30.7-93.3-85.6-94.2
	c-11.3-0.2-22.1,2.6-31.6,7.3c-11.8,5.8-21.6,15-28.6,26.2l-14.4,23c-6.6,10.5-15.6,19.3-26.5,25.1c-10.1,5.4-21.6,8.4-33.8,8.4l0,0
	c-26.8,0-50.3-14.7-62.6-36.5L907,307.9c-12.8-20.4-34.8-33.6-58.9-34.3c-0.7,0-1.4,0-2.1,0l0,0c-39.8,0-72,32.2-72,72l0,0
	c0,25.6,13.3,48.1,33.5,60.8l60.2,37.5c13.7,8.5,22.7,23.2,23.3,39.4c0,0.6,0,1.2,0,1.8l0,0c0,27.3-22.2,49.5-49.5,49.5l0,0
	c-7.5,0-14.7-1.7-21-4.7l-9.9-4.6c-35.3-17.5-96.2-53.7-198.5-53.7H99c-39.6,0-72-32.4-72-72V0"/>
</svg>
