<?xml version="1.0" encoding="utf-8"?>
<!-- Generator: Adobe Illustrator 25.2.0, SVG Export Plug-In . SVG Version: 6.00 Build 0)  -->
<svg version="1.1" id="Calque_1" xmlns:v="https://vecta.io/nano"
	 xmlns="http://www.w3.org/2000/svg" xmlns:xlink="http://www.w3.org/1999/xlink" x="0px" y="0px" viewBox="0 0 1634.9 528.6"
	 style="enable-background:new 0 0 1634.9 528.6;" xml:space="preserve">
<style type="text/css">
	.st0{fill:none;}
</style>
<path id="B" class="st0" d="M18,0v294.6c0,72,54,144,126,144h432c198,0,198,63,255.3,63c50.7,0,73.6-50.1,32.1-84.2
	c-3.1-2.6-14.7-10.7-27.7-18.5c-36.2-22-87.5-57.6-63.3-116c1.1-2.5,2.9-6.1,5.3-10.2C802,231.3,855,222.6,891,258.6
	c27,27,45,72,72,108s81.7,34.9,108,0c4.1-5.4,14.3-22,18.2-27c26.8-36,62.8-36,89.8-27c45,18,45,81,63,117c9,18,27,36,54,36
	s49.6-19,72-41.5c25.4-25.4,48.1-38.6,72.4-39.3l116.6-0.2c30.4,0,57.2-23.6,57.3-54L1614.2,0"/>
</svg>
