<svg xmlns="http://www.w3.org/2000/svg" viewBox="0 0 906.6 445.5" width="906.6" height="445.5"><style><![CDATA[.P{fill:#f1f1f0}.Q{opacity:.25}.R{opacity:.54}.S{fill:#fdf8fb}.T{font-family:MyriadPro-Regular}.U{font-size:24.982px}]]></style><use href="#H" class="P"></use><use href="#I" fill="url(#F)" class="Q"></use><use href="#J" class="S"></use><text transform="matrix(1.0616 0 0 1 52.6228 276.068)" class="T U">1</text><use href="#H" x="190.6" y="-199" class="P"></use><use href="#I" x="190.7" y="-199" class="Q" fill="url(#F)"></use><use href="#K" class="S"></use><text transform="matrix(1.0616 0 0 1 243.2324 77.0295)" class="T U">2</text><use href="#H" x="369" y="-46" class="P"></use><use href="#I" x="369" y="-46" class="Q" fill="url(#F)"></use><use href="#J" x="369" y="-46" class="S"></use><text transform="matrix(1.0616 0 0 1 421.6228 230.068)" class="T U">3</text><use href="#H" x="505.7" y="-136" class="P"></use><use href="#I" x="505.8" y="-136" class="Q" fill="url(#F)"></use><linearGradient id="F" gradientUnits="userSpaceOnUse" x1="69.473" y1="302.745" x2="69.473" y2="248.745"><stop offset="0" stop-color="#1d1e1c"></stop><stop offset="1" stop-color="#f1f1f0"></stop></linearGradient><use href="#K" x="315.1" y="63" class="S"></use><text transform="matrix(1.0616 0 0 1 558.34 140.068)" class="T U">4</text><use href="#H" x="661" y="26" class="P"></use><use href="#I" x="661" y="26" class="Q" fill="url(#F)"></use><use href="#J" x="661" y="26" class="S"></use><text transform="matrix(1.0616 0 0 1 713.6229 302.068)" class="T U">5</text><defs><path id="H" d="M59.3 248.7c-16.4 0-34.6 19.1-1.2 53.4.4.4.7.6 1.2.6.4 0 .7-.2 1.2-.6 33.5-34.3 16.3-53.4-1.2-53.4z"></path><path id="I" d="M59.4 248.7c17.3 0 34.6 19.1 1.2 53.4-.4.4-.7.6-1.2.6v-54z"></path><path id="J" d="M59.3 252.4c-15 0-26.8 19.8-1 35.8.4.3.6.4 1 .4s.6-.1 1-.4c26.4-17.7 13.9-35.8-1-35.8z"></path><path id="K" d="M249.9 53.4c-15 0-26.8 19.8-1 35.8.4.3.6.4 1 .4s.6-.1 1-.4c26.4-17.7 14-35.8-1-35.8z"></path></defs></svg>