<svg xmlns="http://www.w3.org/2000/svg" width="87" height="136" viewBox="0 0 87 136" fill="none">
  <path d="M12.7521 132.872L9.11811 135.081L0.90625 18.3356L4.63463 17.5369L12.7521 132.872Z" fill="black"/>
  <path d="M86.0442 87.8188L83.9677 89.0872L77.7852 1.32887L79.9089 0.85907L86.0442 87.8188Z" fill="black"/>
  <path d="M80.5699 40.8389L8.31503 69.4027L5.05859 23.2684L78.1158 5.74493L80.5699 40.8389Z" fill="#E94E1B"/>
  <path d="M18.0832 53.8993L16.7617 34.9195L21.6228 33.5101C22.8026 33.1812 23.8881 33.2282 24.8792 33.745C25.823 34.2618 26.5782 35.1074 27.1917 36.3759C27.758 37.5973 28.1356 39.1007 28.2772 40.9329C28.4188 42.7651 28.2772 44.4094 27.8996 45.9598C27.5221 47.5101 26.9085 48.8255 26.059 49.9061C25.2095 50.9866 24.2184 51.7383 22.9914 52.1611L18.0832 53.8993ZM19.5934 50.9396L22.661 49.8591C23.6049 49.5302 24.36 48.9665 25.0208 48.1678C25.6343 47.3692 26.1062 46.3826 26.3894 45.2081C26.6726 44.0336 26.767 42.7651 26.6726 41.4027C26.5782 40.0403 26.295 38.8658 25.8703 37.9262C25.4455 36.9866 24.832 36.3759 24.1241 35.9531C23.4161 35.5772 22.5666 35.5302 21.6699 35.8121L18.6023 36.7517L19.5934 50.9396Z" fill="white"/>
  <path d="M32.5726 46.4296L38.5663 44.3624L38.7079 46.5705L31.2039 49.2484L29.9297 31.1141L37.2449 29L37.3864 31.2081L31.5815 32.9463L32.5726 46.4296ZM31.8647 38.49L37.1976 36.7987L37.3392 38.9598L32.0063 40.698L31.8647 38.49ZM32.431 28.9061L34.2244 25.0067L36.0178 24.5369L33.7996 28.5302L32.431 28.9061Z" fill="white"/>
  <path d="M41.0201 45.7248L39.793 28.2483L43.6158 27.1208C44.4653 26.8859 45.1732 26.8859 45.8339 27.2148C46.4474 27.4966 46.9665 28.0604 47.3441 28.8591C47.7217 29.6577 47.9576 30.6913 48.052 31.9127C48.1464 33.1342 48.052 34.2618 47.816 35.2483C47.5801 36.2349 47.1553 37.0805 46.6362 37.7383C46.0698 38.396 45.4092 38.9127 44.5597 39.1946L41.5392 40.2282L42.1055 38.8658L42.5775 45.302L41.0201 45.7248ZM41.964 39.0537L41.256 38.0201L44.2293 37.0336C45.126 36.7517 45.7395 36.1879 46.1642 35.3893C46.5418 34.5906 46.7306 33.5571 46.6362 32.3356C46.5418 31.1141 46.2587 30.2215 45.7867 29.7047C45.2676 29.1879 44.6068 29.047 43.7101 29.2819L40.7369 30.1745L41.3032 28.7651L41.964 39.0537Z" fill="white"/>
  <path d="M48.8555 42.953L51.8287 24.7718L53.103 24.396L58.2944 39.6175L56.9729 40.0873L52.3006 25.9933L52.8198 25.8524L50.2241 42.4832L48.8555 42.953ZM50.3185 38.1141L50.5545 36.047L55.6043 34.3557L56.1234 36.141L50.3185 38.1141Z" fill="white"/>
  <path d="M59.5194 39.1476L58.3867 22.8456L61.6903 21.906C62.4454 21.6711 63.059 21.7181 63.6253 22.047C64.1444 22.3288 64.6164 22.8456 64.9468 23.5973C65.2771 24.349 65.4659 25.2886 65.5603 26.4631C65.6547 27.5906 65.5603 28.6241 65.3715 29.5637C65.1356 30.4564 64.8052 31.255 64.3332 31.8658C63.8613 32.4765 63.2478 32.8993 62.5399 33.1342L59.897 34.0268L60.3689 32.7584L60.7936 38.7718L59.5194 39.1476ZM60.3217 32.9463L59.7082 32.0067L62.3039 31.1611C63.059 30.9262 63.6253 30.4094 63.9557 29.6577C64.2861 28.906 64.4276 27.9664 64.3332 26.8389C64.2388 25.7114 64.0029 24.8658 63.5781 24.396C63.1534 23.8792 62.5399 23.7383 61.7848 23.9732L59.1891 24.7248L59.661 23.4094L60.3217 32.9463ZM65.1356 37.1745L62.6342 32.1007L63.9085 31.6778L66.4098 36.7047L65.1356 37.1745Z" fill="white"/>
  <path d="M69.5728 35.5772L68.6289 21.906L65.8916 22.7047L65.75 20.7316L72.2629 18.8524L72.4045 20.7785L69.7615 21.5772L70.7054 35.2013L69.5728 35.5772Z" fill="white"/>
</svg>