<?xml version="1.0" encoding="utf-8"?>
<!-- Generator: Adobe Illustrator 25.2.0, SVG Export Plug-In . SVG Version: 6.00 Build 0)  -->
<svg version="1.1" id="Calque_1" xmlns="http://www.w3.org/2000/svg" xmlns:xlink="http://www.w3.org/1999/xlink" x="0px" y="0px"
	 viewBox="0 0 18 18" style="enable-background:new 0 0 18 18;" xml:space="preserve">
<path d="M8.8,5.3L3,10.1v5.7c0,0.3,0.3,0.5,0.5,0.5H7c0.3,0,0.5-0.3,0.5-0.5v-3.3c0-0.3,0.3-0.5,0.5-0.5h2c0.3,0,0.5,0.3,0.5,0.5
	v3.3c0,0.3,0.3,0.5,0.5,0.5l0,0h3.5c0.3,0,0.5-0.3,0.5-0.5v-5.7l-6-4.8C9.1,5.2,8.9,5.2,8.8,5.3z"/>
<path d="M17.9,8.5l-2.7-2.1V2.1c0-0.3-0.1-0.4-0.4-0.4h-1.7c-0.1,0-0.3,0.1-0.3,0.4v2.3L10,2.1c-0.7-0.5-1.3-0.5-2,0L0.1,8.5
	C0,8.6,0,8.9,0.1,9l0,0l0.8,0.9c0.1,0.1,0.4,0.1,0.5,0l0,0l7.3-6c0.1-0.1,0.4-0.1,0.5,0l7.3,6c0.1,0.1,0.4,0.1,0.5,0l0,0L18,9
	C18,8.9,18,8.6,17.9,8.5L17.9,8.5z"/>
</svg>
