<?xml version="1.0" encoding="utf-8"?>
<!-- Generator: Adobe Illustrator 25.2.0, SVG Export Plug-In . SVG Version: 6.00 Build 0)  -->
<svg version="1.1" id="Calque_1" xmlns="http://www.w3.org/2000/svg" xmlns:xlink="http://www.w3.org/1999/xlink" x="0px" y="0px"
	 viewBox="0 0 90 90" style="enable-background:new 0 0 90 90;" xml:space="preserve">
<style type="text/css">
	.st0{fill:#009EE2;}
	.st1{fill:url(#SVGID_1_);}
	.st2{fill:#FFFFFF;}
</style>
<g>
	<path class="st0" d="M41.5,59h7.4c2.5,0,4.4-2.2,4.4-4.8H36.7C36.7,56.8,39,59,41.5,59z"/>
	<path class="st0" d="M16.7,42.1c-4.9-0.4-5.1,7.1-0.2,8c2.5,0.3,9.1,1.2,9.3-3.2C25.8,43.3,21.8,42.8,16.7,42.1z"/>
	<path class="st0" d="M45,0C20.1,0,0,20.1,0,45c0,24.9,20.1,45,45,45s45-20.1,45-45C90,20.1,69.9,0,45,0z M81.2,35
		c0,1.5-3.3,2.8-4.2,2.7c-0.5-0.1-1-0.2-1.5-0.3l-0.6,1c2.5,1.2,4.3,2.7,4.6,4.7v18.5v3.3v0.1c0,2.2-1.7,4-3.7,4h-3.1
		c-2,0-3.7-1.8-3.7-4v-0.1H21v0.1c0,2.2-1.7,4-3.7,4h-3.1c-2,0-3.7-1.8-3.7-4v-0.1v-3.3V43c0.3-2,2.1-3.5,4.6-4.7l-0.6-1
		c-0.5,0.1-1,0.2-1.5,0.3c-0.9,0.1-4.2-1.2-4.2-2.7c0-2.2,1.9-2.7,4.2-2.7c2,0,4,1.1,4.1,2.5h0l0.2,0.4l4.1-9.5
		c1.9-4.4,5.9-7.2,10.3-7.2l4.2-0.1h-0.1c0-1.8,1.5-3.2,3.2-3.2h11.7c1.7,0,3.1,1.3,3.2,3h0v0.3l4.2,0.1c4.4,0,8.4,2.8,10.3,7.2
		l4.1,9.5l0.2-0.4h0c0.1-1.4,2.2-2.5,4.1-2.5C79.4,32.3,81.2,32.7,81.2,35z"/>
	<path class="st0" d="M51.5,34.8c2.6,0,11.6,0.2,18.7,2v-0.3L66.1,27c-1.5-3.4-4.5-5.5-7.8-5.5l-11.5-0.4c-1.1,0-2.3,0-3.4,0
		l-11.5,0.4c-3.3,0-6.4,2.2-7.8,5.5l-4.1,9.5l0,0v0.3c7.1-1.8,16.1-2,18.7-2H51.5z"/>
	<path class="st0" d="M64.2,46.9c0.2,4.4,6.8,3.4,9.3,3.2c4.8-0.8,4.6-8.3-0.2-8C68.4,42.5,64.2,43.5,64.2,46.9z"/>
</g>
<linearGradient id="SVGID_1_" gradientUnits="userSpaceOnUse" x1="6.0223" y1="67.5038" x2="83.9777" y2="22.4962" gradientTransform="matrix(6.123234e-17 1 -1 6.123234e-17 90 0)">
	<stop  offset="0" style="stop-color:#39A7DF"/>
	<stop  offset="0.3273" style="stop-color:#38A4DD"/>
	<stop  offset="0.5652" style="stop-color:#339BD6"/>
	<stop  offset="0.7746" style="stop-color:#2B8BCB"/>
	<stop  offset="0.9667" style="stop-color:#1F75BA"/>
	<stop  offset="1" style="stop-color:#1D70B7"/>
</linearGradient>
<circle class="st1" cx="45" cy="45" r="45"/>
<path class="st2" d="M21.5,25.7l-4.1,9.5l-0.2-0.4h0C17,33.4,15,32.3,13,32.3c-2.3,0-4.2,0.5-4.2,2.7c0,1.5,3.3,2.8,4.2,2.7
	c0.5-0.1,1-0.2,1.5-0.3l0.6,1c-2.5,1.2-4.3,2.7-4.6,4.7v18.5v3.3v0.1c0,2.2,1.7,4,3.7,4h3.1c2,0,3.7-1.8,3.7-4v-0.1h48v0.1
	c0,2.2,1.7,4,3.7,4h3.1c2,0,3.7-1.8,3.7-4v-0.1v-3.3V43c-0.3-2-2.1-3.5-4.6-4.7l0.6-1c0.5,0.1,1,0.2,1.5,0.3
	c0.9,0.1,4.2-1.2,4.2-2.7c0-2.2-1.9-2.7-4.2-2.7c-2,0-4,1.1-4.1,2.5h0l-0.2,0.4l-4.1-9.5c-1.9-4.4-5.9-7.2-10.3-7.2l-4.2-0.1v-0.3h0
	c-0.1-1.7-1.5-3-3.2-3H39.2c-1.8,0-3.2,1.5-3.2,3.2H36l-4.2,0.1C27.5,18.5,23.4,21.3,21.5,25.7z M16.5,50.1c-4.8-0.8-4.6-8.3,0.2-8
	c5.1,0.6,9.1,1.2,9.1,4.8C25.6,51.3,19,50.4,16.5,50.1z M48.9,59h-7.4c-2.5,0-4.7-2.2-4.7-4.8h16.6C53.3,56.8,51.3,59,48.9,59z
	 M73.3,42.1c4.9-0.4,5.1,7.1,0.2,8c-2.5,0.3-9.1,1.2-9.3-3.2C64.2,43.5,68.4,42.5,73.3,42.1z M43.3,21.1c1.1,0,2.3,0,3.4,0l11.5,0.4
	c3.3,0,6.4,2.2,7.8,5.5l4.1,9.5v0.3c-7.1-1.8-16.1-2-18.7-2h-13c-2.6,0-11.6,0.2-18.7,2v-0.3l0,0L24,27c1.5-3.4,4.5-5.5,7.8-5.5
	L43.3,21.1z"/>
</svg>
